PathFileType  4	(X/Y/Z) C:\Users\antoi\Documents\MyRepositories\mobilecap\ResultsAnalysis
DataRate	CameraRate	NumFrames	NumMarkers	Units	OrigDataRate	OrigDataStartFrame	OrigNumFrames
100.0	100.0	4	51	mm	100.0	997	1328
Frame#	Time	r_knee			r_shank_antsup			r_ankle			r_calc			r_5meta			r_toe			L_knee			L_shank_antsup			L_ankle			L_calc			L_5meta			L_toe			r_sh2			r_sh3			r_sh4			L_sh2			L_sh3			r_thigh1			r_thigh2			r_thigh3			r_thigh4			r_thigh5			L_thigh1			L_thigh2			L_thigh3			L_thigh4			r.ASIS			r.PSIS			L.ASIS			L.PSIS			C7			R_Shoulder			L_Shoulder			R_Sternum			L_Sternum			R_humerus			R_elbow_med			R_elbow_lat			R_forearm			R_wrist_radius			R_wrist_ulna			L_humerus			L_elbow_med			L_elbow_lat			L_forearm			L_wrist_radius			L_wrist_ulna			R_HJC			L_HJC			R_HJC_reg			L_HJC_reg			
		X1	Y1	Z1	X2	Y2	Z2	X3	Y3	Z3	X4	Y4	Z4	X5	Y5	Z5	X6	Y6	Z6	X7	Y7	Z7	X8	Y8	Z8	X9	Y9	Z9	X10	Y10	Z10	X11	Y11	Z11	X12	Y12	Z12	X13	Y13	Z13	X14	Y14	Z14	X15	Y15	Z15	X16	Y16	Z16	X17	Y17	Z17	X18	Y18	Z18	X19	Y19	Z19	X20	Y20	Z20	X21	Y21	Z21	X22	Y22	Z22	X23	Y23	Z23	X24	Y24	Z24	X25	Y25	Z25	X26	Y26	Z26	X27	Y27	Z27	X28	Y28	Z28	X29	Y29	Z29	X30	Y30	Z30	X31	Y31	Z31	X32	Y32	Z32	X33	Y33	Z33	X34	Y34	Z34	X35	Y35	Z35	X36	Y36	Z36	X37	Y37	Z37	X38	Y38	Z38	X39	Y39	Z39	X40	Y40	Z40	X41	Y41	Z41	X42	Y42	Z42	X43	Y43	Z43	X44	Y44	Z44	X45	Y45	Z45	X46	Y46	Z46	X47	Y47	Z47	X48	Y48	Z48	X49	Y49	Z49	X50	Y50	Z50	X51	Y51	Z51	

997	9.96000000	-117.98824	507.06811	-388.05598	-91.05553	380.50279	-393.30159	-284.04170	100.64477	-412.89909	-349.80904	65.93025	-463.19323	-164.96279	37.99582	-344.98312	-119.06264	60.37717	-413.28064	-134.88725	499.70479	-940.05601	-89.99569	389.93306	-932.99035	-284.75395	94.18436	-918.47114	-353.40898	69.43000	-869.14932	-151.63963	33.46766	-954.95042	-117.45380	59.20846	-887.11496	-127.63965	272.57307	-419.42117	-157.66150	391.89382	-354.99520	-187.41838	278.19647	-360.45118	-169.84433	417.30877	-966.21760	-191.23341	298.32906	-977.67112	-227.64029	727.60571	-459.74208	-139.61769	662.18566	-441.52622	-145.72771	627.89454	-383.72430	-286.31906	667.77474	-381.01694	-190.76422	597.60629	-370.75497	-278.20187	720.57564	-895.99621	-165.36250	646.31599	-920.35184	-342.44238	634.16677	-928.49761	-228.54378	558.22659	-949.95904	-337.01307	803.14309	-528.89426	-478.75923	897.79571	-608.79327	-324.58075	777.88809	-785.79320	-480.88882	896.34396	-705.52807	-179.08545	1277.89324	-666.26217	-100.93652	1192.98318	-483.81150	-90.44181	1196.89452	-827.90154	-68.39394	1157.67383	-638.36573	-73.21590	1152.63915	-680.77690	-61.46369	1052.07782	-403.25305	-72.72219	817.42597	-412.27840	-40.81163	862.78604	-333.17086	62.06366	956.68461	-426.15768	140.95660	1006.90670	-493.28638	171.33340	976.82834	-492.16141	-47.71890	1048.79533	-911.20517	-70.38214	813.96379	-909.17297	-21.80257	859.95051	-969.54774	48.99376	951.44651	-852.84268	133.81037	999.48390	-790.43660	164.17143	963.88404	-797.36377	-429.56673	753.80990	-554.19536	-430.76279	729.88454	-766.24007	-423.14448	749.40763	-562.07725	-426.89789	746.84792	-732.58370	
998	9.97000000	-116.82311	506.11223	-387.48645	-89.76682	379.69682	-392.77703	-283.82270	100.83066	-413.00750	-349.71301	66.03114	-463.27948	-164.96534	38.07606	-345.01411	-118.97752	60.37780	-413.26200	-133.54715	498.76731	-940.41058	-88.61558	389.14000	-933.43794	-284.56390	94.19728	-918.42423	-353.34482	69.54751	-869.06631	-151.63120	33.50779	-954.93122	-117.39920	59.20030	-887.06283	-126.77576	272.00602	-419.00415	-156.35454	391.40977	-354.51946	-186.90125	277.78860	-360.21010	-168.18620	417.10471	-966.96536	-190.21171	297.81624	-977.95977	-230.05363	724.76408	-459.30058	-140.73626	660.81078	-441.55145	-146.32968	626.57259	-383.51799	-287.58017	664.09758	-381.06197	-190.88387	595.54568	-370.41099	-280.06734	717.16370	-894.97547	-166.05147	644.89607	-920.04752	-342.88768	630.19105	-928.93050	-227.77191	556.20131	-950.60783	-340.98415	798.35235	-527.77341	-480.21059	890.70076	-608.89507	-327.61234	772.11991	-784.26315	-482.28749	889.22012	-705.49443	-178.53686	1269.23193	-666.21775	-100.17779	1184.15300	-483.96308	-90.03274	1188.06007	-827.65801	-68.00760	1148.57188	-638.22457	-72.97874	1143.48756	-680.69353	-60.13992	1043.64512	-403.38558	-70.09550	809.03122	-412.76025	-38.38003	854.55356	-333.54998	63.74700	948.81160	-426.52068	142.62301	999.51333	-493.47550	173.16479	969.89616	-492.35137	-46.64966	1040.53733	-911.08602	-67.75486	805.56170	-908.52863	-19.50707	851.79756	-969.23847	50.72488	943.81787	-852.41833	135.37377	992.58142	-790.24017	165.94496	957.06456	-797.11350	-432.37036	748.04374	-553.26007	-432.55653	723.16366	-765.19380	-425.98872	743.58868	-560.87895	-429.65334	740.98076	-731.21512	
999	9.98000000	-115.57579	505.26933	-386.75092	-88.53247	378.90798	-392.21805	-283.61317	100.93815	-413.19855	-349.58576	66.15670	-463.44999	-164.97558	38.13611	-345.03957	-118.88323	60.37583	-413.26956	-132.24925	497.83463	-940.88388	-87.27660	388.37299	-933.95486	-284.37410	94.25349	-918.50434	-353.27502	69.64201	-868.98942	-151.62588	33.53102	-954.91086	-117.34082	59.16922	-887.03456	-125.93630	271.44220	-418.71898	-155.13348	390.83128	-354.08945	-186.18243	277.41154	-359.84529	-166.64598	416.73017	-967.57290	-189.22570	297.28601	-978.31185	-232.75953	722.29316	-458.46866	-141.88182	659.56264	-441.47313	-146.97663	625.44541	-383.41925	-288.76556	660.38891	-380.99847	-191.03886	593.51117	-370.06685	-281.77847	713.99072	-894.67102	-166.69942	643.51863	-919.83953	-343.27246	626.29736	-929.42071	-227.02324	554.14195	-951.21111	-345.32007	794.14287	-525.86036	-481.64368	883.57383	-609.05320	-330.43169	767.55292	-783.90999	-483.65395	882.14119	-705.49014	-178.15459	1260.65583	-665.97581	-99.57522	1175.37924	-484.12823	-89.71734	1179.26249	-827.30521	-67.71241	1139.60857	-638.04734	-72.84671	1134.46398	-680.60936	-58.97075	1035.25317	-403.47030	-67.38985	800.53458	-413.16383	-35.95547	846.05083	-334.36451	65.41575	941.18092	-426.64581	144.04528	992.20488	-493.55368	174.78934	963.05286	-492.30743	-45.71071	1032.38602	-910.84688	-65.26564	797.29808	-908.00072	-17.36530	843.77036	-968.93759	52.38960	936.28802	-852.12902	136.77728	985.69816	-790.07124	167.62507	950.36399	-797.08289	-434.99612	742.36835	-552.70239	-433.77465	717.07603	-764.58600	-429.01788	737.84230	-559.26901	-432.59254	735.29829	-730.70898	
1000	9.99000000	-114.43424	504.48930	-385.88734	-87.35924	378.16828	-391.67299	-283.45971	100.94973	-413.39687	-349.44289	66.28222	-463.69452	-164.96642	38.20226	-345.06776	-118.81968	60.35306	-413.28903	-130.97733	496.95291	-941.51297	-86.04777	387.52921	-934.38213	-284.21399	94.30927	-918.59067	-353.20742	69.71290	-868.92502	-151.62216	33.53839	-954.91645	-117.28463	59.11880	-887.02110	-125.17839	270.84143	-418.59915	-153.96700	390.18299	-353.69447	-185.28021	276.94319	-359.58992	-165.34546	416.09511	-968.05149	-188.29558	296.78295	-978.68526	-235.55137	719.88163	-457.95480	-143.13185	658.28830	-441.24939	-147.72677	624.30380	-383.27895	-289.89180	656.58739	-380.92840	-191.21347	591.54238	-369.66904	-283.44824	710.84850	-894.71976	-167.29768	642.22723	-919.74533	-343.61624	622.48219	-929.91977	-226.30512	552.03697	-951.73254	-349.41374	789.91719	-524.80389	-483.13316	876.39589	-609.20563	-333.11599	763.37864	-784.02895	-485.05968	875.04010	-705.60391	-177.94105	1252.06922	-665.73639	-99.12511	1166.64061	-484.23920	-89.50735	1170.51020	-827.07941	-67.58520	1130.73066	-637.99986	-72.82233	1125.55569	-680.60134	-57.93194	1027.01740	-403.63474	-64.84290	792.20044	-413.53508	-33.77584	837.65724	-334.96592	67.01772	933.66936	-426.78087	145.23517	985.24918	-493.76796	176.13525	956.12370	-492.54564	-44.89047	1024.28973	-910.58765	-62.90784	789.10435	-907.67052	-15.34325	835.85774	-968.60225	53.99370	928.85446	-851.97377	138.03934	978.78555	-789.91703	169.15626	943.74047	-797.08345	-437.22651	736.52873	-552.63526	-434.83576	711.22062	-764.51057	-431.73849	732.21147	-558.49748	-435.18089	729.78913	-730.76226	
